# xmcd
#
# Track frame offsets: 
#        150
#        31220
#        49564
#        67379
#        85133
#        100009
#        118622
#        137818
#        157019
#        172582
#
# Disc length: 2533 seconds
#
# Revision: 3
# Processed by: cddbd v1.5.2PL0 Copyright (c) Steve Scherf et al.
# Submitted via: ExactAudioCopy v1.0b3
#
DISCID=7c09e30a
DTITLE=Karussell - Was kann ich tun
DYEAR=1984
DGENRE=Rock
TTITLE0=Was kann ich tun fuer dich
TTITLE1=Mut
TTITLE2=Schau, schau
TTITLE3=Bambule
TTITLE4=Willkommen und Abschied
TTITLE5=Nachtgesang
TTITLE6=Ich bin ein Wal
TTITLE7=Du gehoerst dazu
TTITLE8=Wie ein Fischlein unterm Eis
TTITLE9=Gruess dich Grenada (bonus)
EXTD=
EXTT0=
EXTT1=
EXTT2=
EXTT3=
EXTT4=
EXTT5=
EXTT6=
EXTT7=
EXTT8=
EXTT9=
PLAYORDER=
